<?xml version="1.0" standalone="no"?><!DOCTYPE svg PUBLIC "-//W3C//DTD SVG 1.1//EN" "http://www.w3.org/Graphics/SVG/1.1/DTD/svg11.dtd"><svg t="1730821656820" class="icon" viewBox="0 0 1024 1024" version="1.1" xmlns="http://www.w3.org/2000/svg" p-id="5336" xmlns:xlink="http://www.w3.org/1999/xlink" width="32" height="32"><path d="M515.7888 511.3856m-450.816 0a450.816 450.816 0 1 0 901.632 0 450.816 450.816 0 1 0-901.632 0Z" fill="#FBE1FF" p-id="5337"></path><path d="M804.7104 729.856H713.216A308.992 308.992 0 1 0 489.5744 808.96c5.4784 0.3072 11.0592 0.4608 16.64 0.4608s11.1616 0 16.6912-0.4608h281.6a10.8032 10.8032 0 0 0 10.8032-10.8032v-57.4464a10.8032 10.8032 0 0 0-10.5984-10.8544z m-465.92-157.4912A75.2128 75.2128 0 1 1 414.208 497.152a75.2128 75.2128 0 0 1-75.264 75.2128z m167.5264 167.5264a75.2128 75.2128 0 1 1 75.2128-75.2128 75.2128 75.2128 0 0 1-75.0592 75.2128zM448.5632 494.9504A57.9072 57.9072 0 1 1 506.4704 552.96a57.9072 57.9072 0 0 1-57.9072-58.0096z m57.9072-90.0608a75.264 75.264 0 1 1 75.2128-75.264 75.264 75.264 0 0 1-75.2128 75.264z m92.16 92.16a75.2128 75.2128 0 1 1 75.2128 75.2128A75.2128 75.2128 0 0 1 599.04 497.152z" fill="#BD50D3" p-id="5338"></path><path d="M806.1952 424.96a309.0432 309.0432 0 1 0-407.6544 365.0048A451.0208 451.0208 0 0 0 806.1952 424.96zM338.944 572.3648A75.2128 75.2128 0 1 1 414.208 497.152a75.2128 75.2128 0 0 1-75.264 75.2128z m167.5264 167.5264a75.2128 75.2128 0 1 1 75.2128-75.2128 75.2128 75.2128 0 0 1-75.2128 75.2128zM448.5632 494.9504A57.9072 57.9072 0 1 1 506.4704 552.96a57.9072 57.9072 0 0 1-57.9072-58.0096z m57.9072-90.0608a75.264 75.264 0 1 1 75.2128-75.264 75.264 75.264 0 0 1-75.2128 75.264z m92.16 92.16a75.2128 75.2128 0 1 1 75.2128 75.2128A75.2128 75.2128 0 0 1 599.04 497.152z" fill="#C65EDB" p-id="5339"></path><path d="M448.5632 494.9504a57.9072 57.9072 0 0 1 115.7632-1.5872 449.8432 449.8432 0 0 0 121.344-244.9408 309.0432 309.0432 0 0 0-459.264 382.4128h13.568a448.5632 448.5632 0 0 0 255.3856-79.3088 57.9072 57.9072 0 0 1-46.7968-56.576zM338.944 572.3648A75.2128 75.2128 0 1 1 414.208 497.152a75.2128 75.2128 0 0 1-75.264 75.2128z m167.5264-317.952a75.264 75.264 0 1 1-75.2128 75.2128 75.2128 75.2128 0 0 1 75.2128-75.2128z" fill="#CA6EE0" p-id="5340"></path><path d="M199.68 465.6128a445.44 445.44 0 0 0 88.9856-24.0128 74.8544 74.8544 0 0 1 43.2128-19.3024 451.328 451.328 0 0 0 102.4-72.0384 76.0832 76.0832 0 0 1-2.9184-20.48 75.2128 75.2128 0 0 1 75.1104-75.3664c1.8944 0 3.6864 0 5.5296 0.3072a450.56 450.56 0 0 0 31.1296-61.44A308.9408 308.9408 0 0 0 199.68 465.6128z" fill="#D786EA" p-id="5341"></path></svg>