<?xml version="1.0" standalone="no"?><!DOCTYPE svg PUBLIC "-//W3C//DTD SVG 1.1//EN"
        "http://www.w3.org/Graphics/SVG/1.1/DTD/svg11.dtd">
<svg t="1730823637352" class="icon" viewBox="0 0 1024 1024" version="1.1" xmlns="http://www.w3.org/2000/svg" p-id="6351"
     xmlns:xlink="http://www.w3.org/1999/xlink" width="32" height="32">
    <path d="M398.997 745.422c-87.067 0-168.925-33.907-230.493-95.475-61.568-61.568-95.475-143.425-95.475-230.493s33.907-168.925 95.475-230.493c61.568-61.568 143.426-95.475 230.493-95.475 87.068 0 168.925 33.907 230.493 95.475 61.567 61.568 95.475 143.425 95.475 230.493s-33.907 168.924-95.475 230.493c-61.568 61.568-143.425 95.475-230.493 95.475z m0-641.935c-174.226 0-315.968 141.743-315.968 315.968s141.743 315.967 315.968 315.967c174.225 0 315.968-141.742 315.968-315.967S573.222 103.487 398.997 103.487z"
          fill="#FFFFFF" p-id="6352"></path>
    <path d="M900.342 846.024c-13.139 0-25.825-4.005-36.688-11.582L672.749 701.264c-28.766-20.066-36.076-59.463-16.296-87.82 11.62-16.657 30.82-26.601 51.359-26.601 13.137 0 25.818 4.002 36.676 11.575l190.906 133.188c13.922 9.712 23.29 24.186 26.378 40.756 3.094 16.601-0.483 33.312-10.072 47.056-11.619 16.66-30.818 26.606-51.358 26.606zM707.813 596.843c-17.272 0-33.406 8.345-43.158 22.322C648.03 643 654.227 676.15 678.47 693.062L869.375 826.24c9.176 6.4 19.884 9.783 30.967 9.783 17.272 0 33.406-8.347 43.156-22.327 8.044-11.529 11.043-25.558 8.444-39.502-2.604-13.974-10.513-26.186-22.27-34.387L738.767 606.62c-9.17-6.396-19.874-9.777-30.954-9.777zM206.546 492.84c-23.968-31.695-34.16-70.799-28.697-110.107 5.462-39.307 25.929-74.155 57.63-98.124l6.031 7.977c-29.571 22.358-48.662 54.862-53.757 91.524-5.095 36.662 4.412 73.135 26.769 102.7l-7.976 6.03zM304.784 484.382c-38.571 0-69.951-36.632-69.951-81.659 0-45.026 31.38-81.658 69.951-81.658 38.566 0 69.942 36.631 69.942 81.658s-31.376 81.659-69.942 81.659z m0-153.316c-33.057 0-59.951 32.146-59.951 71.658 0 39.513 26.894 71.659 59.951 71.659 33.052 0 59.942-32.146 59.942-71.659 0-39.513-26.89-71.658-59.942-71.658z"
          fill="#FFFFFF" p-id="6353"></path>
    <path d="M722.963 669.638l173.272 129.354-5.982 8.013L716.98 677.65z" fill="#44403F" p-id="6354"></path>
</svg>